PathFileType	4	(X/Y/Z)	Run_300 02
DataRate	CameraRate	NumFrames	NumMarkers	Units	OrigDataRate	OrigDataStartFrame	OrigNumFrames
100	100	6	45	mm	100	211	137
Frame#	Time	LASI			RASI			LPSI			RPSI			RTH1			RTH2			RTH3			LTH1			LTH2			LTH3			RTB1			RTB2			RTB3			RLMAL			RMMAL			LTB1			LTB2			LTB3			RCAL			RTOE			RMT5			LCAL			LTOE			LMT5			LACR			RACR			CLAV			C7			LPSH			RUA1			RUA2			RUA3			RLEL			RMEL			LUA1			LUA2			LUA3			LLEL			LMEL			RFAsuperior			RFAradius			RFAulna			LFAsuperior			LFAradius			LFAulna		
		X1	Y1	Z1	X2	Y2	Z2	X3	Y3	Z3	X4	Y4	Z4	X5	Y5	Z5	X6	Y6	Z6	X7	Y7	Z7	X8	Y8	Z8	X9	Y9	Z9	X10	Y10	Z10	X11	Y11	Z11	X12	Y12	Z12	X13	Y13	Z13	X14	Y14	Z14	X15	Y15	Z15	X16	Y16	Z16	X17	Y17	Z17	X18	Y18	Z18	X19	Y19	Z19	X20	Y20	Z20	X21	Y21	Z21	X22	Y22	Z22	X23	Y23	Z23	X24	Y24	Z24	X25	Y25	Z25	X26	Y26	Z26	X27	Y27	Z27	X28	Y28	Z28	X29	Y29	Z29	X30	Y30	Z30	X31	Y31	Z31	X32	Y32	Z32	X33	Y33	Z33	X34	Y34	Z34	X35	Y35	Z35	X36	Y36	Z36	X37	Y37	Z37	X38	Y38	Z38	X39	Y39	Z39	X40	Y40	Z40	X41	Y41	Z41	X42	Y42	Z42	X43	Y43	Z43	X44	Y44	Z44	X45	Y45	Z45	

211	  2.110000	941.878815	1086.278954	-430.367368	948.314886	1074.161833	-202.329829	779.131098	1124.394894	-362.516738	781.499980	1120.105783	-272.628105	795.788900	829.119052	-156.006327	843.649088	745.110644	-190.444350	744.148315	669.391309	-188.589766	910.780039	876.583208	-482.241417	1035.112662	818.192616	-472.596212	1035.144481	709.622580	-458.503608	683.939712	422.998267	-242.649865	616.461911	392.918487	-204.812179	577.516718	271.946125	-257.003929	484.857000	191.638058	-249.155124	519.036383	203.071774	-326.000576	1084.849857	496.306135	-423.176219	963.330572	438.907035	-442.358164	987.593647	329.519108	-407.814265	427.193376	211.179483	-316.031647	574.003190	 64.971867	-302.713108	513.532844	 70.830531	-231.448066	835.788322	232.392867	-355.646210	1031.017794	128.126919	-391.637532	965.827439	136.567821	-455.484995	873.028318	1595.291020	-459.927956	925.877418	1564.618207	-154.161327	978.866894	1513.136526	-297.666156	861.416546	1598.934806	-299.201125	788.637740	1564.792555	-451.765055	899.581518	1413.661040	-62.640516	821.757933	1361.067873	-57.955835	840.701722	1304.674873	-20.432983	864.206589	1239.246573	 -5.219045	805.733839	1227.364793	-77.790588	759.385956	1505.035394	-514.122537	688.809501	1445.102235	-487.937468	674.292624	1410.785298	-553.629445	651.335596	1336.780078	-583.244633	634.476100	1325.773965	-493.035477	915.171391	1209.842915	-56.641367	1029.899535	1308.880389	-186.626486	1049.943818	1244.328887	-179.551793	718.131788	1272.577118	-553.905532	883.335249	1307.743199	-508.344043	877.385754	1240.486590	-519.220612	
212	  2.120000	943.691056	1093.571795	-431.383219	951.081292	1080.319869	-203.236396	782.574746	1131.537783	-362.891510	784.942394	1126.574301	-273.026173	792.510989	836.917683	-155.641714	838.174932	752.002327	-187.846174	736.827801	678.942212	-187.564827	911.018471	883.203232	-482.225382	1033.496903	822.291613	-472.557010	1031.413721	712.965687	-456.497805	672.773740	432.772365	-238.790926	603.736044	404.428276	-201.940734	564.564904	282.573526	-253.651582	471.137936	204.027410	-246.091901	506.607235	213.924631	-322.302475	1090.398364	497.106139	-423.067044	974.666106	428.766876	-441.649512	1009.288396	322.010211	-406.267706	417.106979	229.167707	-312.604315	551.663952	 68.509086	-301.229246	490.840457	 80.104370	-230.491006	866.834064	211.982740	-353.199846	1070.596677	124.712771	-387.570980	1004.988658	126.163685	-451.551367	872.581556	1601.760862	-460.140896	926.984048	1571.939642	-155.567797	979.384885	1520.026785	-298.486051	862.156062	1605.289592	-299.962093	788.206394	1571.965698	-450.515900	901.619632	1422.040692	-63.318099	824.327461	1369.101223	-58.060093	843.484078	1312.716404	-20.613435	867.687153	1246.904225	 -5.644729	807.713807	1235.097837	-77.535905	757.459384	1513.150584	-511.693830	687.621338	1454.269026	-482.298852	670.313898	1419.711748	-547.118490	645.182760	1345.420045	-575.442519	631.373131	1335.154969	-484.666883	917.850554	1218.927115	-58.606702	1027.777947	1321.566970	-190.188802	1048.766897	1257.328806	-184.273226	712.681608	1281.206081	-547.660577	879.522403	1316.106500	-508.185967	873.005098	1248.719384	-517.726928	
213	  2.130000	945.474788	1099.544407	-431.830642	953.453624	1085.694279	-203.611939	785.811594	1137.400153	-363.105267	788.139794	1132.256993	-273.507719	789.900507	844.171268	-155.478095	834.343629	758.365906	-185.675275	732.158311	686.918895	-186.998985	910.460355	887.514415	-481.281762	1030.373361	823.915391	-472.636532	1025.913383	714.116039	-454.280359	664.365989	441.263861	-237.142765	594.503517	414.778520	-200.458570	552.580790	293.483420	-251.624879	457.498856	217.994520	-243.657264	493.416474	226.212834	-319.623921	1094.550264	496.515935	-423.010576	985.752845	417.824451	-441.310668	1030.056377	314.864765	-404.740093	406.643250	247.426437	-309.521285	531.952852	 73.158646	-298.985203	469.895683	 92.504048	-229.260755	897.791347	193.350371	-350.705077	1108.415067	122.914547	-382.901207	1043.219193	117.311101	-447.005292	872.569783	1607.390717	-460.423552	927.898312	1578.157566	-157.041078	979.885709	1525.724900	-299.406261	862.869805	1610.550817	-300.801315	788.173395	1578.336109	-449.672005	903.465957	1429.251285	-64.300571	826.570307	1376.254039	-57.857674	845.920018	1319.709529	-20.884527	870.348217	1253.524160	 -6.114617	808.687641	1241.932857	-77.136657	756.140711	1520.306181	-509.563534	687.141200	1462.409052	-477.164435	667.226612	1427.531576	-540.890629	639.987531	1352.982779	-567.686486	629.123317	1343.483443	-476.585453	919.651703	1226.729909	-60.417047	1025.686576	1332.200599	-193.161011	1047.195343	1268.130371	-188.579854	708.154759	1288.733561	-541.562616	876.404988	1323.367449	-507.830713	869.350834	1255.866053	-516.181141	
214	  2.140000	947.238869	1103.996859	-431.466078	955.265984	1090.338596	-203.416745	788.608391	1141.842015	-363.085062	790.765559	1137.099628	-273.643137	788.503352	850.469335	-155.203544	832.779864	763.786687	-184.593716	730.500054	692.948950	-186.770656	908.563193	889.233261	-479.440693	1025.673724	823.020189	-472.770321	1019.099715	713.195125	-452.716491	658.215868	448.359887	-237.277058	588.177823	423.926372	-200.002312	541.282560	304.584395	-250.593715	443.542330	233.247251	-241.932740	479.733987	239.332636	-317.807037	1097.388206	494.798129	-422.969000	996.687212	406.427975	-441.162111	1049.514927	308.311126	-402.963618	395.597343	265.560147	-307.568101	513.144610	 79.443676	-295.677663	449.828597	107.260746	-227.360933	927.916899	177.119759	-348.169024	1143.727667	122.457266	-377.324074	1079.797054	110.188661	-441.681643	872.829144	1612.018363	-460.830100	928.610589	1583.176635	-158.578051	980.459094	1530.234009	-300.505909	863.572403	1614.580577	-301.810690	788.402440	1583.681645	-449.193942	905.154062	1435.081565	-65.609947	828.478274	1382.398207	-57.572501	847.889022	1325.610350	-21.233317	872.091342	1259.058065	 -6.492876	808.843052	1247.812004	-76.640226	755.263556	1526.364744	-507.564674	687.227748	1469.219598	-472.385035	664.820367	1434.128930	-534.978874	635.730874	1359.281625	-560.273220	627.649575	1350.530063	-469.054272	920.505051	1233.097623	-62.010527	1023.707176	1340.654400	-195.432445	1045.326500	1276.548153	-192.491563	704.553371	1294.974911	-535.857301	873.966072	1329.436784	-507.432718	866.447926	1261.821575	-514.656727	
215	  2.150000	948.976349	1106.899046	-430.291199	956.498143	1094.332503	-202.661174	790.786116	1144.852900	-362.865626	792.641723	1140.910487	-273.226383	789.262945	854.966150	-154.702171	833.939381	767.780258	-185.128743	731.997167	696.864006	-186.910831	905.426622	888.965745	-477.235038	1020.161216	820.204572	-472.702450	1011.749552	710.581814	-452.581321	653.719484	454.155437	-238.068235	583.508985	432.278058	-200.085403	530.550084	315.732785	-249.962008	429.397733	249.418679	-240.870673	466.244093	252.655862	-316.493095	1098.862414	492.225912	-423.011395	1007.004117	395.184979	-440.737137	1067.200952	302.532958	-400.720434	384.251311	283.288851	-307.189568	493.754488	 88.444984	-291.086805	430.041523	123.735635	-224.425700	956.352266	163.736695	-345.408405	1175.809720	123.071781	-370.787182	1113.744183	104.964297	-435.572325	873.262264	1615.523605	-461.461652	929.198084	1586.972735	-160.159386	981.158887	1533.622331	-301.785560	864.313598	1617.441176	-303.104395	788.830378	1587.840584	-449.059523	906.626207	1439.461118	-67.142655	829.910301	1387.456939	-57.496670	849.203963	1330.434918	-21.656239	872.851278	1263.524493	 -6.676284	808.449423	1252.697274	-76.195172	754.725709	1531.191261	-505.678864	687.779011	1474.486129	-467.904255	662.973791	1439.390732	-529.489591	632.404198	1364.141879	-553.480336	626.903593	1356.065221	-462.311706	920.390249	1237.983443	-63.250263	1021.829687	1346.748585	-197.038541	1043.253709	1282.481010	-195.715027	701.866667	1299.776876	-530.671643	872.206268	1334.192863	-507.181186	864.336630	1266.462128	-513.257369	
216	  2.160000	950.663825	1108.379471	-428.602880	957.331929	1097.645978	-201.428650	792.332175	1146.480143	-362.494287	793.895501	1143.418632	-272.381193	792.672619	857.025432	-154.198325	837.717093	770.067773	-187.252849	736.400502	698.709547	-187.421122	901.976478	887.915815	-475.501447	1014.990432	816.354586	-472.367325	1004.456016	706.747513	-454.025279	650.556946	458.794089	-238.553088	579.493187	440.452998	-200.415933	520.483758	326.885856	-249.200066	415.542787	266.323613	-240.275702	453.583341	265.935998	-315.279547	1098.880191	489.033012	-423.196225	1015.699987	384.811517	-439.585296	1082.513166	297.708077	-398.058578	373.075952	300.504529	-308.236209	473.952000	100.681222	-285.013566	410.668832	141.614974	-220.356414	982.119898	153.341888	-342.069330	1203.916318	124.746846	-363.859093	1143.787086	101.652007	-428.950025	873.873229	1617.812222	-462.439633	929.799600	1589.537452	-161.763074	981.950778	1535.937633	-303.205433	865.141689	1619.335974	-304.762161	789.468879	1590.706242	-449.311299	907.721102	1442.453818	-68.686037	830.629804	1391.350369	-57.847066	849.678311	1334.193682	-22.128787	872.602913	1266.949559	 -6.642577	807.578521	1256.520986	-75.883504	754.503373	1534.628299	-504.066092	688.732467	1478.056178	-463.869410	661.682294	1443.161633	-524.626776	630.012548	1367.404698	-547.569221	626.861245	1359.900148	-456.500402	919.393801	1241.421984	-63.965071	1020.074287	1350.251007	-198.145498	1041.110944	1285.845332	-197.933644	700.073061	1303.007877	-526.110309	871.129418	1337.501593	-507.165837	863.049429	1269.667758	-512.104245	
